<?xml version="1.0" standalone="no"?>
<!DOCTYPE svg PUBLIC "-//W3C//DTD SVG 20010904//EN"
 "http://www.w3.org/TR/2001/REC-SVG-20010904/DTD/svg10.dtd">
<svg version="1.0" xmlns="http://www.w3.org/2000/svg"
 width="700.000000pt" height="700.000000pt" viewBox="0 0 700.000000 700.000000"
 preserveAspectRatio="xMidYMid meet">
<metadata>
Created by potrace 1.14, written by Peter Selinger 2001-2017
</metadata>
<g transform="translate(0.000000,700.000000) scale(0.100000,-0.100000)"
fill="#000000" stroke="none">
<path d="M3278 6996 c-1 -2 -42 -6 -89 -10 -47 -4 -95 -8 -105 -10 -10 -2 -45
-7 -78 -11 -160 -19 -429 -82 -606 -142 -666 -224 -1233 -626 -1664 -1177
-158 -201 -328 -483 -421 -696 -25 -58 -50 -114 -55 -125 -45 -93 -150 -427
-176 -560 -2 -11 -10 -54 -19 -95 -29 -147 -35 -193 -52 -370 -15 -162 -8
-592 12 -711 2 -13 6 -46 9 -74 47 -409 239 -952 466 -1318 30 -48 60 -95 65
-105 24 -42 133 -191 208 -285 163 -202 344 -382 557 -552 92 -74 370 -265
386 -265 4 0 15 -6 23 -14 9 -7 81 -47 161 -88 354 -181 736 -303 1109 -354
25 -3 57 -8 71 -10 163 -25 682 -25 842 1 13 2 46 7 73 10 71 10 87 13 115 18
14 3 43 8 65 12 325 59 741 212 1039 384 49 28 91 51 93 51 9 0 264 178 343
239 156 121 330 284 460 430 36 41 70 79 76 85 29 30 185 242 240 326 120 184
241 412 315 597 66 163 147 422 175 558 16 79 54 301 59 350 4 33 9 71 11 85
9 47 11 525 3 605 -15 165 -21 220 -24 225 -2 3 -6 30 -10 60 -3 30 -10 71
-15 90 -5 19 -12 51 -15 70 -13 77 -66 272 -106 390 -349 1040 -1169 1861
-2204 2208 -168 57 -420 119 -555 137 -19 3 -46 7 -60 10 -13 2 -54 7 -90 11
-36 3 -76 8 -90 11 -27 5 -536 14 -542 9z m429 -661 c57 -3 111 -8 121 -10 11
-2 43 -6 73 -10 289 -35 633 -146 919 -297 591 -312 1058 -823 1305 -1428 26
-63 51 -124 56 -135 43 -105 117 -409 134 -555 3 -25 7 -55 9 -67 22 -112 23
-549 2 -660 -3 -11 -7 -44 -11 -73 -4 -29 -9 -62 -11 -74 -2 -12 -7 -37 -10
-56 -36 -212 -134 -504 -242 -725 -52 -105 -151 -279 -164 -283 -4 -2 -8 -8
-8 -13 0 -5 -23 -42 -52 -81 -370 -521 -887 -898 -1481 -1082 -145 -45 -346
-90 -450 -101 -32 -4 -68 -8 -80 -11 -34 -6 -213 -17 -292 -17 -82 -1 -309 11
-345 17 -14 3 -47 7 -75 10 -27 3 -97 15 -155 26 -666 133 -1249 489 -1679
1025 -389 485 -613 1124 -613 1753 -1 836 341 1594 973 2156 211 188 540 388
819 499 138 54 359 122 463 141 88 16 148 26 192 32 28 3 59 8 69 10 11 2 72
6 135 10 64 4 117 7 118 8 4 4 174 -2 280 -9z"/>
<path d="M2086 5239 c-274 -68 -414 -378 -286 -630 42 -82 138 -167 228 -202
79 -31 155 -38 243 -21 171 32 307 166 342 335 56 268 -135 514 -408 525 -44
2 -97 -1 -119 -7z"/>
<path d="M4670 5224 c-272 -98 -378 -409 -222 -650 99 -152 283 -227 461 -186
237 54 381 283 327 524 -56 250 -326 399 -566 312z"/>
<path d="M2696 3484 c-68 -17 -186 -71 -233 -106 -18 -14 -72 -61 -120 -106
-132 -122 -151 -138 -238 -195 -171 -114 -325 -157 -484 -136 -76 11 -138 32
-233 80 l-78 39 6 -48 c33 -306 332 -604 769 -767 368 -137 761 -137 1035 0
134 67 248 180 310 310 39 80 73 201 63 219 -4 5 -1 6 5 2 7 -4 12 -21 12 -37
0 -16 9 -58 21 -92 38 -114 79 -178 171 -269 76 -75 103 -95 191 -137 137 -66
253 -92 427 -96 74 -2 169 1 210 6 543 68 1043 407 1136 768 16 63 26 141 18
141 -2 0 -22 -11 -43 -25 -22 -13 -66 -35 -98 -48 -200 -81 -401 -63 -595 54
-61 38 -197 141 -248 190 -165 158 -220 195 -350 239 -131 44 -324 33 -457
-26 -115 -50 -236 -158 -301 -267 -36 -60 -82 -185 -82 -223 0 -45 -16 -24
-29 37 -44 217 -219 407 -441 479 -83 27 -258 34 -344 14z"/>
</g>
</svg>
